<svg width="37" height="36" viewBox="0 0 37 36" fill="none" xmlns="http://www.w3.org/2000/svg">
<ellipse cx="18.3984" cy="17.967" rx="17.8049" ry="17.967" fill="#3197F4"/>
<g clip-path="url(#clip0_304_6019)">
<path d="M26.8161 14.4604C26.7766 13.556 26.6317 12.9342 26.424 12.3954C26.2099 11.8235 25.8803 11.3115 25.4486 10.8859C25.0268 10.4536 24.5161 10.1177 23.9559 9.90495C23.4189 9.69544 22.806 9.54918 21.9097 9.50931C21.0068 9.46606 20.7201 9.45605 18.43 9.45605C16.1399 9.45605 15.8532 9.46606 14.9536 9.50593C14.0574 9.54581 13.4412 9.69219 12.9074 9.90157C12.3405 10.1177 11.8331 10.4502 11.4113 10.8859C10.983 11.3115 10.6502 11.8269 10.4393 12.3922C10.2316 12.9342 10.0867 13.5526 10.0472 14.457C10.0043 15.3682 9.99442 15.6574 9.99442 17.9684C9.99442 20.2794 10.0043 20.5686 10.0438 21.4764C10.0834 22.3808 10.2284 23.0026 10.436 23.5414C10.6502 24.1133 10.983 24.6253 11.4113 25.0509C11.8331 25.4832 12.3439 25.8191 12.9041 26.0319C13.4412 26.2414 14.054 26.3876 14.9504 26.4275C15.8499 26.4675 16.1366 26.4774 18.4268 26.4774C20.7169 26.4774 21.0035 26.4675 21.9031 26.4275C22.7994 26.3876 23.4156 26.2414 23.9493 26.0319C25.0829 25.5896 25.9792 24.6852 26.4175 23.5414C26.625 22.9994 26.77 22.3808 26.8096 21.4764C26.8491 20.5686 26.859 20.2794 26.859 17.9684C26.859 15.6574 26.8556 15.3682 26.8161 14.4604ZM25.2971 21.4099C25.2608 22.2412 25.1225 22.6901 25.0071 22.9894C24.7237 23.7309 24.1405 24.3194 23.4056 24.6054C23.1091 24.7218 22.661 24.8614 21.8405 24.8979C20.9508 24.9379 20.6839 24.9478 18.4333 24.9478C16.1827 24.9478 15.9125 24.9379 15.0261 24.8979C14.2023 24.8614 13.7574 24.7218 13.4609 24.6054C13.0952 24.469 12.7623 24.2529 12.4922 23.9703C12.2121 23.6943 11.9979 23.3617 11.8627 22.9927C11.7474 22.6935 11.609 22.2412 11.5729 21.4133C11.5332 20.5155 11.5234 20.2461 11.5234 17.975C11.5234 15.7039 11.5332 15.4313 11.5729 14.5369C11.609 13.7056 11.7474 13.2567 11.8627 12.9574C11.9979 12.5883 12.2121 12.2525 12.4955 11.9798C12.7689 11.6971 13.0984 11.481 13.4642 11.3448C13.7608 11.2284 14.209 11.0887 15.0294 11.0521C15.9191 11.0122 16.1861 11.0022 18.4365 11.0022C20.6905 11.0022 20.9573 11.0122 21.8438 11.0521C22.6676 11.0887 23.1124 11.2284 23.409 11.3448C23.7747 11.481 24.1075 11.6971 24.3777 11.9798C24.6578 12.2558 24.872 12.5883 25.0071 12.9574C25.1225 13.2567 25.2608 13.7089 25.2971 14.5369C25.3366 15.4347 25.3466 15.7039 25.3466 17.975C25.3466 20.2461 25.3366 20.5121 25.2971 21.4099Z" fill="white"/>
<path d="M18.4296 13.5957C16.0374 13.5957 14.0965 15.5542 14.0965 17.9683C14.0965 20.3824 16.0374 22.3408 18.4296 22.3408C20.822 22.3408 22.7627 20.3824 22.7627 17.9683C22.7627 15.5542 20.822 13.5957 18.4296 13.5957ZM18.4296 20.8046C16.8777 20.8046 15.6188 19.5344 15.6188 17.9683C15.6188 16.4021 16.8777 15.1319 18.4296 15.1319C19.9817 15.1319 21.2404 16.4021 21.2404 17.9683C21.2404 19.5344 19.9817 20.8046 18.4296 20.8046Z" fill="white"/>
<path d="M23.9461 13.4231C23.9461 13.9868 23.4932 14.4439 22.9344 14.4439C22.3758 14.4439 21.9228 13.9868 21.9228 13.4231C21.9228 12.8593 22.3758 12.4023 22.9344 12.4023C23.4932 12.4023 23.9461 12.8593 23.9461 13.4231Z" fill="white"/>
</g>
<defs>
<clipPath id="clip0_304_6019">
<rect width="16.8678" height="17.0214" fill="white" transform="translate(9.96456 9.45605)"/>
</clipPath>
</defs>
</svg>
