<svg width="229" height="55" viewBox="0 0 229 55" fill="none" xmlns="http://www.w3.org/2000/svg">
<rect x="27.2173" width="38.4911" height="38.4911" transform="rotate(45 27.2173 0)" fill="white"/>
<path d="M44.4747 25.6684L41.4577 28.6844L41.8299 29.0565C42.0548 29.2811 42.2332 29.5478 42.355 29.8414C42.4767 30.1349 42.5393 30.4496 42.5393 30.7674C42.5393 31.0852 42.4767 31.3999 42.355 31.6935C42.2332 31.987 42.0548 32.2538 41.8299 32.4784L41.266 33.0421C41.0446 33.2655 40.7811 33.4428 40.4907 33.5638C40.2003 33.6847 39.8888 33.7469 39.5742 33.7468H39.4107C39.4285 34.0827 39.376 34.4187 39.2566 34.7332C39.1371 35.0477 38.9534 35.3338 38.717 35.5733L38.1531 36.137C37.9316 36.3607 37.6682 36.5386 37.3779 36.6605C37.0876 36.7823 36.7762 36.8458 36.4613 36.8474C36.4069 36.8504 36.3523 36.8504 36.2978 36.8474C36.3248 37.1918 36.2767 37.538 36.157 37.862C36.0372 38.1861 35.8486 38.4804 35.6042 38.7246L35.0402 39.2884C34.5922 39.7391 33.9841 39.9944 33.3485 39.9987C33.2218 39.9939 33.0956 39.9807 32.9706 39.9592C32.9539 40.5942 32.6958 41.199 32.2488 41.6504L31.6849 42.2142C31.2343 42.6625 30.6287 42.9208 29.9931 42.9358H29.9424C29.6381 42.9377 29.3364 42.8794 29.0548 42.7643C28.7732 42.6491 28.5171 42.4794 28.3013 42.2649L28.087 42.0507L26.8351 43.2966C26.3171 43.8129 25.6155 44.1029 24.8839 44.1029C24.1524 44.1029 23.4507 43.8129 22.9328 43.2966L22.7072 43.0654C22.4155 42.7728 22.1939 42.4178 22.0591 42.0273C21.9243 41.6367 21.8798 41.2207 21.929 40.8105C21.8238 40.816 21.7184 40.816 21.6132 40.8105C21.2506 40.8127 20.8913 40.7425 20.5563 40.6041C20.2212 40.4656 19.9172 40.2617 19.662 40.0043V40.0043L19.4364 39.7732C19.145 39.4805 18.924 39.1254 18.7902 38.7347C18.6564 38.344 18.6131 37.928 18.6638 37.5182C18.5511 37.5182 18.4496 37.552 18.3424 37.552C17.6113 37.5503 16.9103 37.2606 16.3912 36.7459L16.1657 36.5148C15.8743 36.2218 15.6529 35.8669 15.5182 35.4764C15.3834 35.0859 15.3387 34.67 15.3874 34.2598C15.2804 34.2656 15.1731 34.2656 15.066 34.2598C14.7037 34.2604 14.3448 34.1895 14.01 34.0512C13.6752 33.9129 13.371 33.7098 13.1148 33.4536L12.8949 33.2338C12.6378 32.9781 12.4337 32.6742 12.2945 32.3395C12.1553 32.0047 12.0836 31.6458 12.0836 31.2832C12.0836 30.9207 12.1553 30.5618 12.2945 30.227C12.4337 29.8923 12.6378 29.5883 12.8949 29.3327L13.143 29.0734L9.75946 25.6909L27.1002 8.30518L44.4747 25.6684ZM40.578 27.8275L42.7322 25.6684L29.9424 12.8602L22.0474 20.792C21.8385 21.2392 21.7931 21.7455 21.9192 22.2226C22.0453 22.6998 22.3348 23.1176 22.7374 23.4034C23.1399 23.6891 23.63 23.8246 24.1222 23.7862C24.6144 23.7479 25.0775 23.5382 25.431 23.1936L30.6755 17.8719L38.4689 25.6853L40.578 27.8275ZM40.9727 31.6271C41.1945 31.4015 41.3188 31.0978 41.3188 30.7815C41.3188 30.4652 41.1945 30.1615 40.9727 29.9359L37.1944 26.1476L30.6642 19.5969L26.2543 24.0561C25.787 24.5149 25.1943 24.825 24.5509 24.9474C23.9075 25.0699 23.2423 24.9991 22.6391 24.744C22.0359 24.489 21.5217 24.061 21.1615 23.5142C20.8013 22.9674 20.6111 22.3262 20.615 21.6715C20.6165 21.1467 20.74 20.6294 20.9759 20.1606L21.0944 20.0084L29.0796 11.9977L27.1002 10.0189L11.44 25.6684L13.9889 28.2447L14.3216 27.9121C14.5774 27.655 14.8814 27.4511 15.2162 27.3119C15.5511 27.1727 15.9102 27.101 16.2728 27.101C16.6354 27.101 16.9945 27.1727 17.3294 27.3119C17.6642 27.4511 17.9683 27.655 18.224 27.9121L18.4552 28.1376C18.7462 28.4307 18.9673 28.7857 19.1021 29.1761C19.2368 29.5666 19.2817 29.9824 19.2334 30.3925C19.3395 30.3726 19.447 30.3613 19.5548 30.3587C19.9172 30.3581 20.276 30.4289 20.6108 30.5673C20.9457 30.7056 21.2499 30.9087 21.506 31.1649L21.7316 31.396C22.022 31.6894 22.2423 32.0446 22.376 32.4351C22.5098 32.8255 22.5536 33.2412 22.5042 33.651C22.9202 33.6021 23.3419 33.6483 23.7375 33.7859C24.1331 33.9236 24.4923 34.1493 24.7881 34.4458L25.0136 34.677C25.3064 34.9689 25.5287 35.3237 25.6635 35.7145C25.7984 36.1053 25.8423 36.5216 25.7919 36.9319C26.2027 36.8831 26.6192 36.9283 27.01 37.064C27.4008 37.1998 27.7556 37.4226 28.0476 37.7155L28.2788 37.9354C28.6818 38.3353 28.9521 38.8495 29.0529 39.4081C29.1538 39.9668 29.0804 40.5429 28.8427 41.0585L29.1811 41.3967C29.2861 41.5026 29.4121 41.5853 29.5509 41.6397C29.6898 41.694 29.8385 41.7188 29.9875 41.7124C30.3074 41.7043 30.6112 41.5707 30.8334 41.3404L31.3973 40.7766C31.627 40.5518 31.7604 40.2466 31.7695 39.9254C31.7745 39.7766 31.7491 39.6284 31.6948 39.4897C31.6405 39.3511 31.5584 39.225 31.4537 39.1192L29.2826 36.9545L27.6077 35.3083L28.448 34.4458L30.4781 36.4753L30.5119 36.4415L32.4744 38.392C32.7001 38.6137 33.0038 38.738 33.3203 38.738C33.6367 38.738 33.9405 38.6137 34.1662 38.392L34.7301 37.8283C34.9537 37.5979 35.0787 37.2895 35.0787 36.9686C35.0787 36.6476 34.9537 36.3392 34.7301 36.1089L31.4988 32.8843L30.9349 32.3205L31.7977 31.4636L35.5703 35.2407C35.7994 35.4559 36.1019 35.5758 36.4162 35.5758C36.7306 35.5758 37.0331 35.4559 37.2621 35.2407L37.826 34.677C38.0478 34.4513 38.1721 34.1477 38.1721 33.8313C38.1721 33.515 38.0478 33.2113 37.826 32.9857L34.0139 29.1749L33.8842 29.0452L34.7639 28.2447L38.7114 32.1909C38.9378 32.4113 39.2413 32.5346 39.5573 32.5346C39.8733 32.5346 40.1768 32.4113 40.4032 32.1909L40.9727 31.6271ZM27.4385 40.9852C27.7281 40.6937 27.8907 40.2996 27.8907 39.8887C27.8907 39.4779 27.7281 39.0837 27.4385 38.7923L27.213 38.5668C26.9223 38.2776 26.529 38.1153 26.1189 38.1153C25.7089 38.1153 25.3155 38.2776 25.0249 38.5668V38.5668L23.5813 40.0156C23.2934 40.3068 23.1319 40.6998 23.1319 41.1092C23.1319 41.5187 23.2934 41.9116 23.5813 42.2029L23.8068 42.434C24.0998 42.7208 24.4936 42.8815 24.9037 42.8815C25.3138 42.8815 25.7075 42.7208 26.0005 42.434L27.4385 40.9852ZM24.1621 37.7099C24.3067 37.5668 24.4215 37.3964 24.4998 37.2087C24.5781 37.021 24.6185 36.8196 24.6185 36.6162C24.6185 36.4128 24.5781 36.2114 24.4998 36.0237C24.4215 35.836 24.3067 35.6657 24.1621 35.5226L23.9422 35.2971C23.7987 35.1532 23.6281 35.0391 23.4404 34.9612C23.2527 34.8833 23.0514 34.8432 22.8482 34.8432C22.6449 34.8432 22.4437 34.8833 22.2559 34.9612C22.0682 35.0391 21.8977 35.1532 21.7542 35.2971V35.2971L20.2767 36.7402C20.1292 36.8846 20.012 37.0569 19.932 37.2472C19.852 37.4374 19.8108 37.6417 19.8108 37.848C19.8108 38.0543 19.852 38.2586 19.932 38.4488C20.012 38.6391 20.1292 38.8114 20.2767 38.9557L20.5079 39.1756C20.7985 39.4648 21.1919 39.6271 21.6019 39.6271C22.0119 39.6271 22.4053 39.4648 22.6959 39.1756V39.1756L24.1396 37.7381L24.1621 37.7099ZM20.8744 34.4458C21.1623 34.1546 21.3238 33.7616 21.3238 33.3522C21.3238 32.9427 21.1623 32.5498 20.8744 32.2585L20.6432 32.0387C20.5015 31.8937 20.3322 31.7786 20.1453 31.7002C19.9583 31.6217 19.7576 31.5816 19.5548 31.582C19.3508 31.5806 19.1485 31.6197 18.9597 31.6972C18.7709 31.7746 18.5994 31.8887 18.4552 32.033V32.033L17.0059 33.4593C16.718 33.7505 16.5565 34.1435 16.5565 34.5529C16.5565 34.9624 16.718 35.3553 17.0059 35.6466L17.2371 35.8721C17.3803 36.0166 17.5507 36.1314 17.7384 36.2097C17.9262 36.288 18.1277 36.3283 18.3311 36.3283C18.5346 36.3283 18.736 36.288 18.9238 36.2097C19.1116 36.1314 19.282 36.0166 19.4251 35.8721L20.8744 34.4458ZM17.6037 31.1761C17.8916 30.8849 18.053 30.4919 18.053 30.0825C18.053 29.673 17.8916 29.2801 17.6037 28.9888L17.3725 28.7577C17.2238 28.6118 17.0474 28.4972 16.8537 28.4207C16.66 28.3442 16.4528 28.3073 16.2446 28.3123C15.8372 28.3109 15.4458 28.4711 15.1562 28.7577L13.7351 30.1896C13.4459 30.4801 13.2835 30.8733 13.2835 31.2832C13.2835 31.6931 13.4459 32.0864 13.7351 32.3769L13.9607 32.608C14.252 32.8958 14.6451 33.0572 15.0547 33.0572C15.4643 33.0572 15.8574 32.8958 16.1487 32.608L17.5924 31.1592L17.6037 31.1761Z" fill="#307FE2"/>
<path d="M66.4445 18.2736C66.4445 6.87169 83.5556 6.87169 83.5556 18.2736C83.5556 29.6755 66.4445 29.6975 66.4445 18.2736ZM79.1925 18.2736C79.2345 17.7053 79.1575 17.1345 78.9664 16.5969C78.7753 16.0594 78.4741 15.5665 78.0818 15.1492C77.6894 14.7318 77.2142 14.399 76.6859 14.1713C76.1576 13.9437 75.5875 13.8262 75.0112 13.8262C74.4349 13.8262 73.8648 13.9437 73.3365 14.1713C72.8082 14.399 72.333 14.7318 71.9407 15.1492C71.5483 15.5665 71.2471 16.0594 71.056 16.5969C70.8649 17.1345 70.7879 17.7053 70.8299 18.2736C70.8299 24.2534 79.1925 24.2534 79.1925 18.2736Z" fill="white"/>
<path d="M94.3832 9.72217C97.8059 9.72217 101.516 11.6151 102.156 16.0867H97.9973C97.7643 15.3196 97.2783 14.6567 96.6204 14.209C95.9625 13.7614 95.1728 13.556 94.3832 13.6273C91.9027 13.6273 90.2686 15.5128 90.2686 18.2926C90.2686 20.752 91.8806 22.9058 94.3832 22.9356C95.2137 22.9986 96.0392 22.7613 96.7131 22.2659C97.387 21.7706 97.8655 21.0493 98.0636 20.2303H102.222C101.604 24.9701 97.8943 26.8333 94.3759 26.8333C90.1656 26.8333 85.9111 23.9864 85.8891 18.2926C85.867 12.5989 90.173 9.72217 94.3832 9.72217Z" fill="white"/>
<path d="M116.516 17.9392C117.154 18.2593 117.687 18.7602 118.049 19.3809C118.41 20.0016 118.585 20.7151 118.552 21.4344C118.552 24.4194 116.734 26.8333 113.273 26.8333H105.333V9.72284H112.572C113.262 9.71171 113.947 9.83946 114.588 10.0986C115.228 10.3578 115.811 10.7432 116.302 11.2323C116.794 11.7214 117.184 12.3044 117.449 12.9474C117.715 13.5903 117.851 14.2803 117.85 14.977C117.84 15.5367 117.716 16.0882 117.487 16.5977C117.257 17.1072 116.927 17.5637 116.516 17.9392V17.9392ZM109.518 13.6368V16.401H112.255C113.975 16.401 113.975 13.6368 112.255 13.6368H109.518ZM109.518 20.0409V22.9497H112.979C114.721 22.9497 114.699 20.0409 112.979 20.0409H109.518Z" fill="white"/>
<path d="M120.889 18.2736C120.889 6.87169 138 6.87169 138 18.2736C138 29.6755 120.889 29.6975 120.889 18.2736ZM133.67 18.2736C133.712 17.7053 133.635 17.1345 133.444 16.5969C133.252 16.0594 132.95 15.5665 132.557 15.1492C132.163 14.7318 131.687 14.399 131.157 14.1713C130.627 13.9437 130.056 13.8262 129.478 13.8262C128.9 13.8262 128.329 13.9437 127.799 14.1713C127.269 14.399 126.793 14.7318 126.399 15.1492C126.006 15.5665 125.704 16.0594 125.513 16.5969C125.321 17.1345 125.244 17.7053 125.286 18.2736C125.286 24.2534 133.67 24.2534 133.67 18.2736Z" fill="white"/>
<path d="M148.824 15.7152C157.207 15.7152 157.207 26.8104 148.824 26.8333H141.111V9.72217H153.706V13.6363H145.587V15.7152H148.824ZM145.587 19.5761V22.9267H148.793C149.032 22.949 149.273 22.9223 149.501 22.8482C149.729 22.7742 149.938 22.6544 150.116 22.4967C150.293 22.339 150.435 22.1467 150.532 21.9323C150.63 21.7178 150.68 21.4859 150.68 21.2514C150.68 21.0169 150.63 20.785 150.532 20.5706C150.435 20.3561 150.293 20.1639 150.116 20.0061C149.938 19.8484 149.729 19.7287 149.501 19.6546C149.273 19.5806 149.032 19.5538 148.793 19.5761H145.587Z" fill="white"/>
<path d="M157.445 18.2736C157.445 6.87169 173.778 6.87169 173.778 18.2736C173.778 29.6755 157.445 29.6975 157.445 18.2736ZM169.611 18.2736C169.658 17.7019 169.589 17.1263 169.41 16.5835C169.231 16.0406 168.944 15.5421 168.569 15.1197C168.194 14.6973 167.739 14.3601 167.231 14.1294C166.724 13.8987 166.176 13.7796 165.622 13.7796C165.068 13.7796 164.52 13.8987 164.012 14.1294C163.505 14.3601 163.049 14.6973 162.674 15.1197C162.299 15.5421 162.013 16.0406 161.834 16.5835C161.654 17.1263 161.586 17.7019 161.632 18.2736C161.632 24.2534 169.611 24.2534 169.611 18.2736Z" fill="white"/>
<path d="M178.874 28.3888H175.333V22.8479H177.044L182.835 9.72217H184.688L190.689 22.8479H192.444V28.3888H188.836V26.5664H178.859L178.874 28.3888ZM181.38 22.7962H186.151L183.72 16.8052L181.38 22.7962Z" fill="white"/>
<path d="M195.566 26.8333H194V9.79785H198.485V18.1226L207.173 9.72217H208.778V26.803H204.193V18.4783L195.566 26.8333Z" fill="white"/>
<path d="M227.466 9.72217H229V26.8333H224.621V19.2385L221.061 23.0359H220.584L217.046 19.2385V26.8333H212.667V9.72217H214.246L220.8 17.1347L227.466 9.72217Z" fill="white"/>
<path d="M68.2212 35.9199H68.9148C69.1287 35.2659 69.5406 34.694 70.094 34.2826C70.5418 33.9915 71.0646 33.8356 71.5993 33.8335C72.1275 33.8623 72.6365 34.0409 73.0663 34.3483C73.496 34.6557 73.8285 35.0791 74.0246 35.5685C74.2207 36.0579 74.2723 36.593 74.1732 37.1106C74.074 37.6282 73.8284 38.1068 73.4652 38.49C73.2199 38.7445 72.9244 38.9458 72.5974 39.0813C72.2704 39.2168 71.9187 39.2836 71.5646 39.2776C70.9074 39.2798 70.2707 39.0497 69.768 38.6281C69.5025 38.417 69.2854 38.1519 69.1311 37.8505C68.9767 37.549 68.8888 37.2182 68.8732 36.8802H68.1795V39.1463H67.2223V33.9648H68.2073L68.2212 35.9199ZM73.2848 36.5624C73.2875 36.1036 73.1138 35.6611 72.7993 35.3258C72.6449 35.1551 72.4552 35.0197 72.2432 34.9291C72.0313 34.8384 71.8021 34.7946 71.5715 34.8007C71.3481 34.7973 71.1263 34.8383 70.9191 34.9213C70.7118 35.0044 70.5233 35.1278 70.3646 35.2843C70.1979 35.4534 70.0676 35.6546 69.9818 35.8755C69.8959 36.0965 69.8562 36.3326 69.8651 36.5693C69.8548 36.8054 69.8952 37.041 69.9838 37.2602C70.0723 37.4795 70.2069 37.6773 70.3784 37.8406C70.7008 38.1542 71.1347 38.328 71.5854 38.3242C71.8079 38.3256 72.0283 38.281 72.2325 38.1929C72.4367 38.1049 72.6203 37.9755 72.7715 37.8129C72.9368 37.6493 73.0673 37.4543 73.1555 37.2395C73.2437 37.0247 73.2876 36.7945 73.2848 36.5624V36.5624Z" fill="white"/>
<path d="M76.5556 33.8391H77.6154C78.0326 33.8149 78.4506 33.869 78.8494 33.9987C79.0992 34.1065 79.3093 34.2945 79.449 34.5353C79.5993 34.8007 79.6742 35.1049 79.6652 35.4127C79.6806 35.7546 79.5794 36.0911 79.3793 36.3627C79.1829 36.6213 78.9115 36.8069 78.6054 36.8921C78.2582 36.9576 77.9053 36.9843 77.5526 36.9719V39.2779H76.5556V33.8391ZM77.5317 35.9349H77.8524C78.0262 35.9429 78.2002 35.9233 78.3684 35.8769C78.4622 35.8446 78.5432 35.7808 78.5984 35.6956C78.6561 35.6029 78.6853 35.4941 78.6821 35.3837C78.6882 35.2921 78.6691 35.2005 78.6272 35.1196C78.5852 35.0388 78.5221 34.9719 78.4451 34.9269C78.2455 34.8364 78.0275 34.799 77.8106 34.8181H77.5317V35.9349Z" fill="white"/>
<path d="M86.6667 33.8335V39.2779H85.6501V35.8661L83.6594 39.2779H82.7778V33.8335H83.8229V37.3833L85.842 33.8625L86.6667 33.8335Z" fill="white"/>
<path d="M91.6795 33.8335H92.5195L93.9312 37.7197H94.4445V39.2779H93.6337V38.5651H90.6237V39.2779H89.7778V37.7197H90.262L91.6795 33.8335ZM92.1053 35.0952L91.1487 37.726H93.062L92.1053 35.0952Z" fill="white"/>
<path d="M100.667 33.8335V39.2779H99.6426V35.8661L97.6373 39.2779H96.7778V33.8335H97.802V37.3833L99.8359 33.8625L100.667 33.8335Z" fill="white"/>
<path d="M105.798 36.8896H105.442C105.062 36.9025 104.682 36.8757 104.307 36.8098C104.053 36.7538 103.814 36.6421 103.61 36.4831C103.398 36.3232 103.234 36.1099 103.135 35.8661C103.036 35.5562 102.991 35.2323 103.002 34.9079V33.8335H104.077V34.8933C104.049 35.1672 104.12 35.4421 104.278 35.6701C104.531 35.8486 104.844 35.9264 105.153 35.8879H105.798V33.8335H106.889V39.2779H105.828L105.798 36.8896Z" fill="white"/>
<path d="M110 33.8335H113.111V34.8398H111.073V35.8245H113.111V36.8164H111.073V38.2643H113.111V39.2779H110V33.8335Z" fill="white"/>
<path d="M120.111 34.8654L119.473 35.5533C119.291 35.3248 119.066 35.1404 118.813 35.0123C118.56 34.8842 118.285 34.8154 118.005 34.8104C117.79 34.8039 117.577 34.8459 117.378 34.9335C117.179 35.0212 116.999 35.1526 116.85 35.3194C116.697 35.4812 116.575 35.6751 116.494 35.8893C116.413 36.1034 116.373 36.3333 116.378 36.5646C116.372 36.8842 116.445 37.1998 116.588 37.4796C116.724 37.7464 116.928 37.9659 117.176 38.1125C117.436 38.2656 117.728 38.3438 118.024 38.3395C118.272 38.3417 118.518 38.2878 118.745 38.1813C119.017 38.032 119.263 37.8343 119.473 37.5965L120.111 38.2845C119.824 38.607 119.484 38.8704 119.109 39.0618C118.767 39.2113 118.4 39.2839 118.031 39.2751C117.686 39.2923 117.341 39.2314 117.019 39.0963C116.697 38.9612 116.404 38.755 116.161 38.4909C115.923 38.2357 115.737 37.9305 115.615 37.5943C115.492 37.2581 115.434 36.8982 115.446 36.5371C115.438 36.0552 115.55 35.5799 115.772 35.1612C115.993 34.7554 116.313 34.4224 116.697 34.1981C117.086 33.9607 117.526 33.8351 117.973 33.8335C118.369 33.8338 118.761 33.9261 119.121 34.1041C119.481 34.2822 119.801 34.5419 120.06 34.8654H120.111Z" fill="white"/>
<path d="M123.222 33.8335H124.262V35.7064L125.687 33.8335H126.905L125.039 36.2653L127.111 39.2779H125.9L124.262 36.8606V39.2779H123.229L123.222 33.8335Z" fill="white"/>
<path d="M130.851 33.8335H131.942L134.111 39.2779H132.997L132.552 38.16H130.248L129.796 39.2779H128.667L130.851 33.8335ZM131.4 35.2853L130.647 37.151H132.153L131.4 35.2853Z" fill="white"/>
<path d="M140.333 33.8335V39.2779H139.189V37.1002H138.901L137.693 39.2779H136.445L137.805 36.9187C137.445 36.8506 137.126 36.6651 136.908 36.3974C136.69 36.1297 136.587 35.7985 136.621 35.4668C136.613 35.2198 136.657 34.9736 136.749 34.7409C136.83 34.5631 136.953 34.4036 137.109 34.2732C137.265 34.1429 137.451 34.0448 137.653 33.9859C137.808 33.9323 137.969 33.8933 138.133 33.8698H139.133L140.333 33.8335ZM139.189 36.0766V34.8425H138.877C138.67 34.8372 138.463 34.8543 138.261 34.8933C138.135 34.9203 138.026 34.9906 137.957 35.0893C137.874 35.2031 137.832 35.3376 137.837 35.4741C137.827 35.5632 137.843 35.6531 137.884 35.7347C137.925 35.8163 137.989 35.8867 138.069 35.9387C138.304 36.0468 138.567 36.0945 138.829 36.0766H139.189Z" fill="white"/>
<path d="M146.59 33.8335H147.823V35.7064L149.535 33.8335H151L148.756 36.2653L151.222 39.2779H149.767L147.789 36.8606V39.2779H146.556L146.59 33.8335Z" fill="white"/>
<path d="M156.307 33.8336C156.66 33.8307 157.011 33.8996 157.336 34.036C157.662 34.1723 157.955 34.3733 158.2 34.6265C158.458 34.8791 158.662 35.181 158.8 35.514C158.937 35.847 159.005 36.2042 159 36.5639C159.005 36.9206 158.937 37.2745 158.799 37.6041C158.662 37.9337 158.458 38.232 158.2 38.4807C157.946 38.7333 157.645 38.9339 157.313 39.0707C156.981 39.2075 156.625 39.2779 156.265 39.2779C155.906 39.2779 155.55 39.2075 155.218 39.0707C154.886 38.9339 154.584 38.7333 154.331 38.4807C153.915 38.0516 153.651 37.5009 153.577 36.9107C153.503 36.3205 153.623 35.7224 153.92 35.2057C154.154 34.792 154.498 34.4507 154.915 34.2197C155.334 33.9644 155.816 33.8306 156.307 33.8336V33.8336ZM156.307 34.7989C156.079 34.7937 155.853 34.8352 155.643 34.9206C155.432 35.006 155.241 35.1336 155.082 35.2953C154.919 35.4632 154.79 35.662 154.706 35.8799C154.621 36.0979 154.581 36.3305 154.588 36.5639C154.574 36.8266 154.624 37.0889 154.732 37.3288C154.841 37.5687 155.007 37.7793 155.215 37.9429C155.524 38.2013 155.917 38.3408 156.321 38.3359C156.546 38.3393 156.77 38.2956 156.978 38.2077C157.185 38.1198 157.371 37.9897 157.525 37.8257C157.846 37.488 158.024 37.0416 158.024 36.5777C158.024 36.1138 157.846 35.6675 157.525 35.3298C157.37 35.1604 157.181 35.0256 156.97 34.934C156.759 34.8425 156.53 34.7964 156.3 34.7989H156.307Z" fill="white"/>
<path d="M162.266 33.8335H163.248L164.469 37.6301L165.697 33.8335H166.672L167.556 39.2779H166.588L166.026 35.8371L164.904 39.2779H164.02L162.912 35.8371L162.337 39.2779H161.333L162.266 33.8335Z" fill="white"/>
<path d="M169.889 33.8335H174.556V39.2779H173.311V34.799H171.142V39.2779H169.889V33.8335Z" fill="white"/>
<path d="M178.784 33.8335H179.693L181.556 39.2779H180.595L180.215 38.16H178.243L177.849 39.2779H176.889L178.784 33.8335ZM179.255 35.2853L178.61 37.151H179.899L179.255 35.2853Z" fill="white"/>
<path d="M183.889 33.8335H185.144V35.8879H187.309V33.8335H188.556V39.2779H187.309V36.8896H185.144V39.2779H183.889V33.8335Z" fill="white"/>
<path d="M195.556 33.8335V39.2779H194.546V35.8661L192.555 39.2779H191.667V33.8335H192.683V37.3833L194.703 33.8625L195.556 33.8335Z" fill="white"/>
<path d="M201 33.848V39.2779H200.085V37.106H199.854L198.888 39.2779H197.889L198.977 36.925C198.69 36.857 198.436 36.6716 198.262 36.4045C198.088 36.1373 198.008 35.807 198.036 35.477C198.029 35.231 198.061 34.9856 198.132 34.753C198.191 34.5644 198.288 34.3936 198.414 34.2534C198.536 34.119 198.682 34.0154 198.843 33.9493C198.969 33.8966 199.1 33.8578 199.233 33.8335H200.027L201 33.848ZM200.085 36.0851V34.8543H199.835C199.67 34.8495 199.504 34.8665 199.342 34.905C199.242 34.9333 199.155 35.0031 199.099 35.1005C199.032 35.2139 198.999 35.3481 199.003 35.4842C198.994 35.5739 199.008 35.6646 199.041 35.7463C199.075 35.828 199.128 35.8977 199.195 35.9476C199.38 36.0563 199.589 36.1039 199.797 36.0851H200.085Z" fill="white"/>
</svg>
