<svg width="36" height="36" viewBox="0 0 36 36" fill="none" xmlns="http://www.w3.org/2000/svg">
<ellipse cx="17.805" cy="17.967" rx="17.8049" ry="17.967" fill="#3197F4"/>
<g clip-path="url(#clip0_304_6031)">
<path fill-rule="evenodd" clip-rule="evenodd" d="M23.8477 19.9465C24.4437 20.5284 25.0727 21.0759 25.6073 21.7164C25.8434 22.0011 26.0669 22.2948 26.2379 22.6252C26.4803 23.0948 26.2608 23.6115 25.8397 23.6396L23.2222 23.6384C22.5471 23.6944 22.0086 23.4226 21.5558 22.9611C21.1934 22.5919 20.8578 22.1991 20.5093 21.8175C20.3664 21.6615 20.2169 21.5148 20.0383 21.3988C19.681 21.1668 19.3708 21.2378 19.1666 21.6105C18.9586 21.9896 18.9115 22.4093 18.8911 22.8317C18.863 23.4481 18.6767 23.6101 18.0576 23.6383C16.7344 23.7007 15.4787 23.5005 14.3122 22.8331C13.2837 22.2446 12.4862 21.4139 11.792 20.4735C10.4405 18.6423 9.40549 16.63 8.47526 14.5614C8.26587 14.0954 8.419 13.8452 8.93323 13.8363C9.78713 13.8198 10.6409 13.8209 11.4958 13.8352C11.8429 13.8402 12.0726 14.0393 12.2066 14.3672C12.6686 15.5031 13.2339 16.5839 13.9435 17.5856C14.1324 17.8524 14.3251 18.1191 14.5995 18.3068C14.903 18.5146 15.1341 18.4457 15.2769 18.1076C15.3675 17.8932 15.4072 17.6623 15.4276 17.4326C15.4953 16.6426 15.5042 15.8539 15.3856 15.0667C15.3127 14.5754 15.036 14.2573 14.5457 14.1643C14.2955 14.1169 14.3328 14.0238 14.4539 13.881C14.6643 13.6348 14.8622 13.4814 15.2566 13.4814H18.2148C18.6805 13.5734 18.7839 13.7826 18.8477 14.2512L18.8502 17.5371C18.8451 17.7185 18.9408 18.2568 19.2676 18.3769C19.5291 18.4623 19.7014 18.2531 19.8584 18.0873C20.5666 17.3356 21.0721 16.4472 21.5237 15.5273C21.7241 15.1228 21.8964 14.7028 22.0634 14.283C22.1872 13.9716 22.3813 13.8183 22.7322 13.8251L25.5792 13.8277C25.6636 13.8277 25.749 13.8289 25.8308 13.8429C26.3106 13.9247 26.442 14.131 26.2939 14.5995C26.0604 15.3345 25.6061 15.947 25.162 16.5624C24.6872 17.2194 24.1794 17.8538 23.7085 18.5147C23.276 19.1182 23.3103 19.4224 23.8477 19.9465Z" fill="white"/>
</g>
<defs>
<clipPath id="clip0_304_6031">
<rect width="17.967" height="17.967" fill="white" transform="translate(8.38464 9.58203)"/>
</clipPath>
</defs>
</svg>
