<svg width="37" height="36" viewBox="0 0 37 36" fill="none" xmlns="http://www.w3.org/2000/svg">
<ellipse cx="18.6017" cy="17.967" rx="17.8049" ry="17.967" fill="#3197F4"/>
<path d="M18.5959 11.3477C18.5959 11.3477 12.7383 11.3477 11.2681 11.7333C10.4809 11.9553 9.83271 12.6095 9.61276 13.4158C9.23074 14.8998 9.23073 17.9729 9.23073 17.9729C9.23073 17.9729 9.23074 21.0578 9.61276 22.5184C9.83271 23.3246 10.4693 23.9672 11.2681 24.1892C12.7499 24.5865 18.5959 24.5865 18.5959 24.5865C18.5959 24.5865 24.4652 24.5865 25.9354 24.2009C26.7341 23.9789 27.3707 23.348 27.5791 22.53C27.9727 21.0578 27.9727 17.9846 27.9727 17.9846C27.9727 17.9846 27.9843 14.8998 27.5791 13.4158C27.3707 12.6095 26.7341 11.967 25.9354 11.7566C24.4652 11.3477 18.5959 11.3477 18.5959 11.3477ZM16.7321 15.1336L21.6058 17.9729L16.7321 20.8006V15.1336Z" fill="white"/>
</svg>
