<svg width="36" height="36" viewBox="0 0 36 36" fill="none" xmlns="http://www.w3.org/2000/svg">
<ellipse cx="18.1951" cy="17.967" rx="17.8049" ry="17.967" fill="#3197F4"/>
<g clip-path="url(#clip0_304_6025)">
<path d="M18.1951 18.6673C20.7157 18.6673 22.7592 16.6053 22.7592 14.0617C22.7592 11.518 20.7158 9.45605 18.1951 9.45605C15.6744 9.45605 13.631 11.5181 13.631 14.0617C13.6341 16.604 15.6757 18.6642 18.1951 18.6673ZM18.1951 11.5817C19.5523 11.5817 20.6527 12.692 20.6527 14.0617C20.6527 15.4314 19.5524 16.5417 18.1951 16.5417C16.8377 16.5417 15.7375 15.4314 15.7375 14.0617C15.7375 12.692 16.8378 11.5817 18.1951 11.5817Z" fill="white"/>
<path d="M22.6658 20.8499C23.1618 20.5202 23.4607 19.9613 23.4613 19.3619C23.4683 18.8645 23.1901 18.4078 22.7472 18.1893C22.2922 17.9599 21.7476 18.0116 21.3429 18.3225C19.4673 19.7023 16.9235 19.7023 15.0479 18.3225C14.6426 18.0132 14.0989 17.9616 13.6436 18.1893C13.2009 18.4077 12.9226 18.864 12.9288 19.3612C12.9299 19.9605 13.2286 20.5192 13.7244 20.8492C14.3604 21.276 15.0531 21.61 15.7817 21.8412C15.9053 21.8799 16.0329 21.9158 16.1644 21.9489L14.0425 24.0427C13.4858 24.5877 13.4724 25.4848 14.0125 26.0466C14.5526 26.6083 15.4416 26.6219 15.9983 26.0769C16.0099 26.0655 16.0213 26.054 16.0324 26.0422L18.1951 23.7833L20.362 26.0465C20.9017 26.6086 21.7908 26.6229 22.3478 26.0784C22.9049 25.5338 22.9191 24.6367 22.3794 24.0745C22.3681 24.0628 22.3566 24.0512 22.345 24.0398L20.2265 21.9482C20.358 21.9142 20.4861 21.878 20.6106 21.8398C21.3385 21.6095 22.0305 21.2762 22.6658 20.8499Z" fill="white"/>
</g>
<defs>
<clipPath id="clip0_304_6025">
<rect width="16.8678" height="17.0214" fill="white" transform="translate(9.76114 9.45605)"/>
</clipPath>
</defs>
</svg>
